<?xml version="1.0" standalone="no"?>
<!DOCTYPE svg PUBLIC "-//W3C//DTD SVG 20010904//EN"
 "http://www.w3.org/TR/2001/REC-SVG-20010904/DTD/svg10.dtd">
<svg version="1.0" xmlns="http://www.w3.org/2000/svg"
 width="836.000000pt" height="836.000000pt" viewBox="0 0 836.000000 836.000000"
 preserveAspectRatio="xMidYMid meet">
<metadata>
Created by potrace 1.11, written by Peter Selinger 2001-2013
</metadata>
<g transform="translate(0.000000,836.000000) scale(0.100000,-0.100000)"
fill="#000000" stroke="none">
<path d="M3815 8146 c-192 -111 -1004 -580 -1803 -1040 l-1452 -838 0 -2087 0
-2086 273 -157 c149 -86 513 -295 807 -465 294 -170 857 -496 1250 -723 393
-227 842 -487 997 -576 156 -90 287 -164 293 -164 6 0 137 74 293 164 155 89
604 349 997 576 393 227 956 553 1250 723 294 170 658 379 807 465 l273 157 0
2087 0 2086 -802 463 c-442 254 -1254 723 -1806 1041 -551 318 -1008 578
-1015 577 -6 0 -169 -91 -362 -203z m-748 -3378 c-2 -674 -2 -684 -24 -747
-81 -238 -326 -389 -568 -351 -190 29 -359 176 -415 359 -25 79 -27 215 -4
292 42 142 134 252 267 318 95 48 165 61 320 61 l108 0 -3 -142 -3 -142 -133
-2 c-146 -3 -165 -9 -229 -76 -43 -45 -63 -96 -63 -163 0 -68 23 -118 78 -167
51 -46 99 -61 178 -56 75 5 130 37 179 107 l30 43 3 674 3 674 139 0 139 0 -2
-682z m729 -99 c158 -49 297 -195 338 -355 11 -45 14 -48 46 -48 32 0 35 3 46
48 56 220 266 380 499 380 381 0 629 -398 460 -739 -90 -182 -260 -289 -460
-289 -233 0 -443 160 -499 380 -11 45 -14 48 -46 48 -32 0 -35 -3 -46 -48 -56
-220 -266 -380 -499 -380 -388 0 -636 413 -453 756 118 223 368 323 614 247z
m2094 21 c138 -22 271 -111 352 -235 98 -151 106 -351 21 -519 -27 -54 -121
-158 -162 -181 -140 -78 -207 -95 -383 -95 l-108 0 0 143 0 142 135 2 c118 1
139 4 169 22 50 32 103 94 115 138 28 98 5 180 -67 245 -51 46 -99 61 -178 56
-75 -5 -130 -37 -179 -107 l-30 -43 -3 -674 -3 -674 -139 0 -139 0 2 688 c2
686 2 687 25 747 69 183 223 314 407 344 71 12 92 12 165 1z"/>
<path d="M3529 4387 c-58 -31 -104 -93 -119 -160 -23 -100 31 -211 123 -256
52 -25 141 -28 195 -5 153 63 191 267 71 381 -71 67 -186 84 -270 40z"/>
<path d="M4625 4391 c-148 -69 -182 -266 -64 -378 96 -91 257 -84 339 15 127
153 22 382 -174 382 -38 0 -76 -7 -101 -19z"/>
</g>
</svg>
